<svg xmlns="http://www.w3.org/2000/svg" version="1.1" xmlns:xlink="http://www.w3.org/1999/xlink" xmlns:svgjs="http://svgjs.dev/svgjs" width="1500" height="1500" viewBox="0 0 1500 1500"><rect width="1500" height="1500" fill="#6b3245"></rect><g transform="matrix(0.6666666666666666,0,0,0.6666666666666666,250,187.66666666666674)"><svg viewBox="0 0 320 360" data-background-color="#6b3245" preserveAspectRatio="xMidYMid meet" height="1687" width="1500" xmlns="http://www.w3.org/2000/svg" xmlns:xlink="http://www.w3.org/1999/xlink"><g id="tight-bounds" transform="matrix(1,0,0,1,0,0)"><svg viewBox="0 0 320 360" height="360" width="320"><g><svg></svg></g><g><svg viewBox="0 0 320 360" height="360" width="320"><g><path d="M160 340c88.258 0 160-71.742 160-160 0-88.258-71.742-160-160-160-88.258 0-160 71.742-160 160 0 88.258 71.742 160 160 160zM165.161 329.368v-10.323c72.671-2.684 131.2-61.213 133.884-133.884h10.323c-2.684 78.452-65.755 141.523-144.207 144.207zM165.161 30.632c78.452 2.684 141.523 65.755 144.207 144.207h-10.323c-2.684-72.671-61.213-131.2-133.884-133.884zM289.032 180c0 71.123-57.91 129.032-129.032 129.032-71.123 0-129.032-57.91-129.032-129.032 0-71.123 57.91-129.032 129.032-129.032 71.123 0 129.032 57.91 129.032 129.032zM154.839 30.632v10.323c-72.671 2.684-131.2 61.213-133.884 133.884h-10.323c2.684-78.452 65.755-141.523 144.207-144.207zM20.955 185.161c2.684 72.671 61.213 131.2 133.884 133.884v10.323c-78.452-2.684-141.523-65.755-144.207-144.207z" fill="#fb6968" fill-rule="nonzero" stroke="none" stroke-width="1" stroke-linecap="butt" stroke-linejoin="miter" stroke-miterlimit="10" stroke-dasharray="" stroke-dashoffset="0" font-family="none" font-weight="none" font-size="none" text-anchor="none" style="mix-blend-mode: normal" data-fill-palette-color="tertiary"></path></g><g transform="matrix(1,0,0,1,95.91895803183793,90)"><svg viewBox="0 0 128.16208393632414 180" height="180" width="128.16208393632414"><g><svg viewBox="0 0 128.16208393632417 180.00000000000003" height="180" width="128.16208393632414"><g><svg viewBox="0 0 128.16208393632417 180.00000000000003" height="180.00000000000003" width="128.16208393632417"><g id="textblocktransform"><svg viewBox="0 0 128.16208393632417 180.00000000000003" height="180.00000000000003" width="128.16208393632417" id="textblock"><g><svg viewBox="0 0 128.16208393632417 180.00000000000003" height="180.00000000000003" width="128.16208393632417"><g transform="matrix(1,0,0,1,0,0)"><svg width="128.16208393632417" viewBox="-0.25 -34.55 24.6 34.55" height="180.00000000000003" data-palette-color="#fb6968"><path d="M17.85-34.55L24.35-34.55 15.25-13.15 15.25 0 8.85 0 8.85-13.1-0.25-34.55 6.5-34.55 12.15-18.3 17.85-34.55Z" opacity="1" transform="matrix(1,0,0,1,0,0)" fill="#fb6968" class="wordmark-text-0" data-fill-palette-color="primary" id="text-0"></path></svg></g></svg></g></svg></g></svg></g><g></g></svg></g></svg></g></svg></g><defs></defs></svg><rect width="320" height="360" fill="none" stroke="none" visibility="hidden"></rect></g></svg></g></svg>